<svg xmlns="http://www.w3.org/2000/svg" version="1.1" xmlns:xlink="http://www.w3.org/1999/xlink" xmlns:svgjs="http://svgjs.com/svgjs" width="1920" height="1080" preserveAspectRatio="none" viewBox="0 0 1920 1080"><g mask="url(&quot;#SvgjsMask1182&quot;)" fill="none"><path d="M405.61 1029.99 a206.23 206.23 0 1 0 412.46 0 a206.23 206.23 0 1 0 -412.46 0z" fill="rgba(28, 83, 142, 0.4)" class="triangle-float1"></path><path d="M2019.811,843.51C2116.262,837.776,2191.716,773.102,2243.526,691.546C2300.568,601.753,2355.08,491.652,2301.84,399.554C2248.628,307.505,2125.845,296.718,2019.811,304.548C1929.001,311.254,1851.912,360.493,1801.743,436.483C1744.586,523.057,1695.739,629.759,1744.73,721.202C1795.522,816.006,1912.448,849.893,2019.811,843.51" fill="rgba(28, 83, 142, 0.4)" class="triangle-float1"></path><path d="M1007.3339092584895 66.09358779776633L1037.45925973787 280.44659447496366 1251.8122664150676 250.32124399558296 1221.6869159356868 35.96823731838563z" fill="rgba(28, 83, 142, 0.4)" class="triangle-float1"></path><path d="M1156.528,1084.635C1202.046,1084.591,1248.124,1069.639,1272.057,1030.921C1297.138,990.345,1296.577,938.441,1272.262,897.401C1248.397,857.121,1203.314,834.155,1156.528,835.925C1112.571,837.588,1077.483,867.794,1055.025,905.617C1031.978,944.431,1018.349,991.875,1040.614,1031.143C1063.11,1070.818,1110.919,1084.679,1156.528,1084.635" fill="#21E6C1" class="triangle-float1"></path><path d="M258.866,657.113C328.126,656.602,395.467,621.369,426.269,559.333C454.503,502.47,425.848,439.584,394.2,384.548C362.417,329.278,322.456,272.825,258.866,268.22C188.362,263.114,120.404,301.118,84.714,362.136C48.69,423.725,50.852,500.395,87.127,561.837C122.799,622.258,188.702,657.631,258.866,657.113" fill="#1F4287" class="triangle-float3"></path><path d="M855.4344456302998 653.1676832483075L964.0761125625827 420.763393433676 740.3626928744895 436.40695966144494z" fill="#278EA5" class="triangle-float1"></path><path d="M1464.76 438.17 a227.55 227.55 0 1 0 455.1 0 a227.55 227.55 0 1 0 -455.1 0z" fill="#278EA5" class="triangle-float1"></path><path d="M77.822,443.856C125.896,443.202,168.182,412.495,190.134,369.721C210.336,330.356,203.517,283.31,179.178,246.36C157.21,213.009,117.731,200.697,77.822,199.218C34.367,197.608,-13.034,202.341,-37.438,238.332C-64.414,278.116,-63.423,330.927,-39.911,372.851C-15.884,415.694,28.707,444.524,77.822,443.856" fill="rgba(28, 83, 142, 0.4)" class="triangle-float3"></path></g><defs><mask id="SvgjsMask1182"><rect width="1920" height="1080" fill="#ffffff"></rect></mask><style>
            @keyframes float1 {
                0%{transform: translate(0, 0)}
                50%{transform: translate(-10px, 0)}
                100%{transform: translate(0, 0)}
            }

            .triangle-float1 {
                animation: float1 5s infinite;
            }

            @keyframes float2 {
                0%{transform: translate(0, 0)}
                50%{transform: translate(-5px, -5px)}
                100%{transform: translate(0, 0)}
            }

            .triangle-float2 {
                animation: float2 4s infinite;
            }

            @keyframes float3 {
                0%{transform: translate(0, 0)}
                50%{transform: translate(0, -10px)}
                100%{transform: translate(0, 0)}
            }

            .triangle-float3 {
                animation: float3 6s infinite;
            }
        </style></defs></svg>