<svg xmlns="http://www.w3.org/2000/svg" version="1.1" xmlns:xlink="http://www.w3.org/1999/xlink" xmlns:svgjs="http://svgjs.dev/svgjs" width="1440" height="560" preserveAspectRatio="none" viewBox="0 0 1440 560"><g mask="url(&quot;#SvgjsMask1218&quot;)" fill="none"><rect width="1440" height="560" x="0" y="0" fill="rgba(255, 243, 218, 1)"></rect><g mask="url(&quot;#SvgjsMask1219&quot;)"><path d="M610 290L630 290L650 290L670 290L690 290L710 290L730 290L750 290L770 290L790 290L810 310L830 310M690 270L710 250L730 250L750 250L770 250M330 310L350 290L370 270M810 290L830 270L850 270L870 270M170 290L190 290L210 290M570 290L590 310L610 310L630 310M550 290L570 310L590 330L610 330L630 330L650 350L670 350L690 350L710 370L730 370L750 370L770 370M370 310L390 290L410 290L430 290L450 290L470 270L490 270L510 270L530 270L550 270M310 310L330 290L350 270M150 290L170 310M-10 290L10 290L30 290L50 290L70 290L90 290L110 290L130 290L150 290L170 290L190 310L210 310L230 310L250 310L270 310L290 310L310 310L330 310L350 310L370 310L390 310L410 310L430 310L450 310L470 290L490 290L510 290L530 290L550 290L570 290L590 290L610 290L630 270L650 270L670 270L690 270L710 270L730 270L750 270L770 270L790 270L810 290L830 290" stroke="rgba(190, 173, 250, 1)" stroke-width="3.33"></path><path d="M825 290 a5 5 0 1 0 10 0 a5 5 0 1 0 -10 0zM825 310 a5 5 0 1 0 10 0 a5 5 0 1 0 -10 0zM765 250 a5 5 0 1 0 10 0 a5 5 0 1 0 -10 0zM365 270 a5 5 0 1 0 10 0 a5 5 0 1 0 -10 0zM865 270 a5 5 0 1 0 10 0 a5 5 0 1 0 -10 0zM205 290 a5 5 0 1 0 10 0 a5 5 0 1 0 -10 0zM625 310 a5 5 0 1 0 10 0 a5 5 0 1 0 -10 0zM765 370 a5 5 0 1 0 10 0 a5 5 0 1 0 -10 0zM545 270 a5 5 0 1 0 10 0 a5 5 0 1 0 -10 0zM345 270 a5 5 0 1 0 10 0 a5 5 0 1 0 -10 0zM165 310 a5 5 0 1 0 10 0 a5 5 0 1 0 -10 0z" fill="rgba(190, 173, 250, 1)"></path><path d="M190 270L210 250M230 290L250 270L270 270M210 270L230 270M-10 270L10 270L30 270L50 270L70 270L90 270L110 270L130 270L150 270L170 270L190 270L210 270L230 290L250 290L270 290L290 290" stroke="rgba(223, 204, 251, 1)" stroke-width="3.33"></path><path d="M285 290 a5 5 0 1 0 10 0 a5 5 0 1 0 -10 0zM205 250 a5 5 0 1 0 10 0 a5 5 0 1 0 -10 0zM265 270 a5 5 0 1 0 10 0 a5 5 0 1 0 -10 0zM225 270 a5 5 0 1 0 10 0 a5 5 0 1 0 -10 0z" fill="rgba(223, 204, 251, 1)"></path><path d="M50 310L70 330L90 330L110 310M-10 310L10 310L30 310L50 310L70 310" stroke="rgba(190, 173, 250, 1)" stroke-width="3.33"></path><path d="M65 310 a5 5 0 1 0 10 0 a5 5 0 1 0 -10 0zM105 310 a5 5 0 1 0 10 0 a5 5 0 1 0 -10 0z" fill="rgba(190, 173, 250, 1)"></path><path d="M170 250L190 250M310 250L330 230L350 230L370 230M250 250L270 230L290 230L310 230M210 230L230 230L250 230M290 250L310 270L330 270M-10 250L10 250L30 250L50 250L70 250L90 250L110 250L130 250L150 250L170 250L190 230L210 230L230 250L250 250L270 250L290 250L310 250L330 250L350 250L370 250" stroke="rgba(190, 173, 250, 1)" stroke-width="3.33"></path><path d="M365 250 a5 5 0 1 0 10 0 a5 5 0 1 0 -10 0zM185 250 a5 5 0 1 0 10 0 a5 5 0 1 0 -10 0zM365 230 a5 5 0 1 0 10 0 a5 5 0 1 0 -10 0zM305 230 a5 5 0 1 0 10 0 a5 5 0 1 0 -10 0zM245 230 a5 5 0 1 0 10 0 a5 5 0 1 0 -10 0zM325 270 a5 5 0 1 0 10 0 a5 5 0 1 0 -10 0z" fill="rgba(190, 173, 250, 1)"></path><path d="M170 330L190 350L210 350L230 350L250 350M270 330L290 350L310 350L330 350L350 350M130 350L150 350L170 350M10 330L30 330M-10 330L10 330L30 350L50 350L70 350L90 350L110 350L130 350L150 330L170 330L190 330L210 330L230 330L250 330L270 330L290 330" stroke="rgba(223, 204, 251, 1)" stroke-width="3.33"></path><path d="M285 330 a5 5 0 1 0 10 0 a5 5 0 1 0 -10 0zM245 350 a5 5 0 1 0 10 0 a5 5 0 1 0 -10 0zM345 350 a5 5 0 1 0 10 0 a5 5 0 1 0 -10 0zM165 350 a5 5 0 1 0 10 0 a5 5 0 1 0 -10 0zM25 330 a5 5 0 1 0 10 0 a5 5 0 1 0 -10 0z" fill="rgba(223, 204, 251, 1)"></path><path d="M150 210L170 230M130 230L150 230M-10 230L10 230L30 230L50 230L70 230L90 230L110 230L130 230L150 210L170 210L190 210L210 210L230 210L250 210" stroke="rgba(190, 173, 250, 1)" stroke-width="3.33"></path><path d="M245 210 a5 5 0 1 0 10 0 a5 5 0 1 0 -10 0zM165 230 a5 5 0 1 0 10 0 a5 5 0 1 0 -10 0zM145 230 a5 5 0 1 0 10 0 a5 5 0 1 0 -10 0z" fill="rgba(190, 173, 250, 1)"></path><path d="M610 410L630 430L650 430M330 390L350 410L370 410L390 410M190 370L210 390L230 410L250 410L270 410M630 410L650 390L670 390L690 390L710 390L730 390M270 370L290 370L310 370L330 370L350 370L370 370L390 370L410 370L430 370L450 370L470 370L490 370L510 370M510 410L530 430L550 430L570 430L590 430L610 430M250 370L270 390M490 410L510 390L530 370L550 370L570 370L590 370L610 370M410 390L430 410L450 410M750 390L770 410L790 410L810 410L830 410L850 410L870 410L890 410L910 410L930 390L950 390L970 370L990 370M-10 350L10 350L30 370L50 370L70 370L90 370L110 370L130 370L150 370L170 370L190 370L210 370L230 370L250 370L270 370L290 390L310 390L330 390L350 390L370 390L390 390L410 390L430 390L450 390L470 390L490 410L510 410L530 410L550 410L570 410L590 410L610 410L630 410L650 410L670 410L690 410L710 410L730 410L750 390L770 390L790 390" stroke="rgba(223, 204, 251, 1)" stroke-width="3.33"></path><path d="M785 390 a5 5 0 1 0 10 0 a5 5 0 1 0 -10 0zM645 430 a5 5 0 1 0 10 0 a5 5 0 1 0 -10 0zM385 410 a5 5 0 1 0 10 0 a5 5 0 1 0 -10 0zM265 410 a5 5 0 1 0 10 0 a5 5 0 1 0 -10 0zM725 390 a5 5 0 1 0 10 0 a5 5 0 1 0 -10 0zM505 370 a5 5 0 1 0 10 0 a5 5 0 1 0 -10 0zM605 430 a5 5 0 1 0 10 0 a5 5 0 1 0 -10 0zM265 390 a5 5 0 1 0 10 0 a5 5 0 1 0 -10 0zM605 370 a5 5 0 1 0 10 0 a5 5 0 1 0 -10 0zM445 410 a5 5 0 1 0 10 0 a5 5 0 1 0 -10 0zM985 370 a5 5 0 1 0 10 0 a5 5 0 1 0 -10 0z" fill="rgba(223, 204, 251, 1)"></path><path d="M450 170L470 150L490 150L510 150L530 150L550 130M250 190L270 170L290 170L310 170L330 170L350 170L370 170L390 150L410 150L430 150L450 150L470 130L490 130L510 130L530 130M870 170L890 150L910 150L930 150L950 130M970 150L990 130L1010 130L1030 130L1050 110M1070 170L1090 150M510 170L530 190L550 190L570 190L590 190M410 170L430 190L450 190L470 190L490 190L510 190L530 210L550 210L570 210L590 210L610 210L630 210L650 210L670 210L690 210L710 210L730 210M190 190L210 170L230 170M330 210L350 210L370 210L390 210L410 210L430 210L450 230L470 230M790 170L810 150L830 150L850 150L870 150L890 130L910 130L930 130L950 110L970 110L990 110M1030 150L1050 150L1070 150L1090 130L1110 130L1130 130L1150 150M1090 170L1110 190L1130 210L1150 210L1170 210L1190 210M630 170L650 190L670 190L690 190L710 190L730 190L750 190L770 190L790 190L810 190L830 190L850 190L870 190L890 190L910 190L930 190L950 190L970 190L990 190L1010 190L1030 190L1050 190M170 190L190 170L210 150L230 150L250 150L270 150L290 150L310 150L330 150L350 150L370 150L390 130L410 130L430 130L450 130L470 110L490 110L510 110L530 110L550 110L570 110L590 90M570 150L590 150L610 150M-10 210L10 210L30 210L50 210L70 210L90 210L110 210L130 210L150 190L170 190L190 190L210 190L230 190L250 190L270 190L290 210L310 210L330 210L350 190L370 190L390 170L410 170L430 170L450 170L470 170L490 170L510 170L530 170L550 150L570 150L590 170L610 170L630 170L650 170L670 170L690 170L710 170L730 170L750 170L770 170L790 170L810 170L830 170L850 170L870 170L890 170L910 170L930 170L950 150L970 150L990 150L1010 150L1030 150L1050 170L1070 170L1090 170L1110 170L1130 190L1150 190L1170 190L1190 190" stroke="rgba(223, 204, 251, 1)" stroke-width="3.33"></path><path d="M1185 190 a5 5 0 1 0 10 0 a5 5 0 1 0 -10 0zM545 130 a5 5 0 1 0 10 0 a5 5 0 1 0 -10 0zM525 130 a5 5 0 1 0 10 0 a5 5 0 1 0 -10 0zM945 130 a5 5 0 1 0 10 0 a5 5 0 1 0 -10 0zM1045 110 a5 5 0 1 0 10 0 a5 5 0 1 0 -10 0zM1085 150 a5 5 0 1 0 10 0 a5 5 0 1 0 -10 0zM585 190 a5 5 0 1 0 10 0 a5 5 0 1 0 -10 0zM725 210 a5 5 0 1 0 10 0 a5 5 0 1 0 -10 0zM225 170 a5 5 0 1 0 10 0 a5 5 0 1 0 -10 0zM465 230 a5 5 0 1 0 10 0 a5 5 0 1 0 -10 0zM985 110 a5 5 0 1 0 10 0 a5 5 0 1 0 -10 0zM1145 150 a5 5 0 1 0 10 0 a5 5 0 1 0 -10 0zM1185 210 a5 5 0 1 0 10 0 a5 5 0 1 0 -10 0zM1045 190 a5 5 0 1 0 10 0 a5 5 0 1 0 -10 0zM585 90 a5 5 0 1 0 10 0 a5 5 0 1 0 -10 0zM605 150 a5 5 0 1 0 10 0 a5 5 0 1 0 -10 0z" fill="rgba(223, 204, 251, 1)"></path><path d="M410 450L430 430M390 430L410 430M670 450L690 430L710 430M730 450L750 430L770 430L790 430L810 430L830 430L850 430L870 430L890 430M150 390L170 390L190 390M290 430L310 410L330 410M650 470L670 470M630 470L650 450M610 450L630 450M-10 370L10 370L30 390L50 390L70 390L90 390L110 390L130 390L150 390L170 410L190 410L210 410L230 430L250 430L270 430L290 430L310 430L330 430L350 430L370 430L390 430L410 450L430 450L450 450L470 450L490 450L510 450L530 450L550 450L570 450L590 450L610 450L630 470L650 470L670 450L690 450L710 450L730 450L750 450" stroke="rgba(190, 173, 250, 1)" stroke-width="3.33"></path><path d="M745 450 a5 5 0 1 0 10 0 a5 5 0 1 0 -10 0zM425 430 a5 5 0 1 0 10 0 a5 5 0 1 0 -10 0zM405 430 a5 5 0 1 0 10 0 a5 5 0 1 0 -10 0zM705 430 a5 5 0 1 0 10 0 a5 5 0 1 0 -10 0zM885 430 a5 5 0 1 0 10 0 a5 5 0 1 0 -10 0zM185 390 a5 5 0 1 0 10 0 a5 5 0 1 0 -10 0zM325 410 a5 5 0 1 0 10 0 a5 5 0 1 0 -10 0zM665 470 a5 5 0 1 0 10 0 a5 5 0 1 0 -10 0zM645 450 a5 5 0 1 0 10 0 a5 5 0 1 0 -10 0zM625 450 a5 5 0 1 0 10 0 a5 5 0 1 0 -10 0z" fill="rgba(190, 173, 250, 1)"></path><path d="M-10 190L10 190L30 190L50 190L70 190" stroke="rgba(190, 173, 250, 1)" stroke-width="3.33"></path><path d="M65 190 a5 5 0 1 0 10 0 a5 5 0 1 0 -10 0z" fill="rgba(190, 173, 250, 1)"></path><path d="M290 450L310 450L330 450M810 470L830 490L850 510M450 470L470 490L490 490L510 490L530 490L550 490L570 510L590 510L610 510L630 510L650 510L670 510M890 490L910 510L930 510L950 510L970 510L990 510M170 430L190 450L210 450L230 470L250 470L270 470L290 470L310 490L330 490L350 490L370 490L390 490L410 490L430 490M30 410L50 430L70 430L90 430L110 430L130 430L150 430L170 450L190 470M370 450L390 470M690 470L710 490L730 490L750 490L770 490L790 490L810 490L830 510L850 530L870 530M350 450L370 470M1010 490L1030 470L1050 470L1070 470L1090 470L1110 470L1130 470L1150 470L1170 470L1190 470M910 490L930 470L950 450L970 450L990 450L1010 450L1030 450L1050 450M830 470L850 470M570 470L590 490L610 490M-10 390L10 390L30 410L50 410L70 410L90 410L110 410L130 410L150 410L170 430L190 430L210 430L230 450L250 450L270 450L290 450L310 470L330 470L350 450L370 450L390 450L410 470L430 470L450 470L470 470L490 470L510 470L530 470L550 470L570 470L590 470L610 470L630 490L650 490L670 490L690 470L710 470L730 470L750 470L770 470L790 470L810 470L830 470L850 490L870 490L890 490L910 490L930 490L950 490L970 490L990 490L1010 490L1030 490L1050 490L1070 490" stroke="rgba(190, 173, 250, 1)" stroke-width="3.33"></path><path d="M1065 490 a5 5 0 1 0 10 0 a5 5 0 1 0 -10 0zM325 450 a5 5 0 1 0 10 0 a5 5 0 1 0 -10 0zM845 510 a5 5 0 1 0 10 0 a5 5 0 1 0 -10 0zM665 510 a5 5 0 1 0 10 0 a5 5 0 1 0 -10 0zM985 510 a5 5 0 1 0 10 0 a5 5 0 1 0 -10 0zM425 490 a5 5 0 1 0 10 0 a5 5 0 1 0 -10 0zM185 470 a5 5 0 1 0 10 0 a5 5 0 1 0 -10 0zM385 470 a5 5 0 1 0 10 0 a5 5 0 1 0 -10 0zM865 530 a5 5 0 1 0 10 0 a5 5 0 1 0 -10 0zM365 470 a5 5 0 1 0 10 0 a5 5 0 1 0 -10 0zM1185 470 a5 5 0 1 0 10 0 a5 5 0 1 0 -10 0zM1045 450 a5 5 0 1 0 10 0 a5 5 0 1 0 -10 0zM845 470 a5 5 0 1 0 10 0 a5 5 0 1 0 -10 0zM605 490 a5 5 0 1 0 10 0 a5 5 0 1 0 -10 0z" fill="rgba(190, 173, 250, 1)"></path><path d="M10 170L30 150L50 150M70 170L90 150M-10 170L10 170L30 170L50 170L70 170L90 170L110 150" stroke="rgba(223, 204, 251, 1)" stroke-width="3.33"></path><path d="M105 150 a5 5 0 1 0 10 0 a5 5 0 1 0 -10 0zM45 150 a5 5 0 1 0 10 0 a5 5 0 1 0 -10 0zM85 150 a5 5 0 1 0 10 0 a5 5 0 1 0 -10 0z" fill="rgba(223, 204, 251, 1)"></path><path d="M-10 410L10 410" stroke="rgba(223, 204, 251, 1)" stroke-width="3.33"></path><path d="M5 410 a5 5 0 1 0 10 0 a5 5 0 1 0 -10 0z" fill="rgba(223, 204, 251, 1)"></path></g></g><defs><mask id="SvgjsMask1218"><rect width="1440" height="560" fill="#ffffff"></rect></mask><mask id="SvgjsMask1219"><rect width="1440" height="560" fill="white"></rect><path d="M827.5 290 a2.5 2.5 0 1 0 5 0 a2.5 2.5 0 1 0 -5 0zM827.5 310 a2.5 2.5 0 1 0 5 0 a2.5 2.5 0 1 0 -5 0zM767.5 250 a2.5 2.5 0 1 0 5 0 a2.5 2.5 0 1 0 -5 0zM367.5 270 a2.5 2.5 0 1 0 5 0 a2.5 2.5 0 1 0 -5 0zM867.5 270 a2.5 2.5 0 1 0 5 0 a2.5 2.5 0 1 0 -5 0zM207.5 290 a2.5 2.5 0 1 0 5 0 a2.5 2.5 0 1 0 -5 0zM627.5 310 a2.5 2.5 0 1 0 5 0 a2.5 2.5 0 1 0 -5 0zM767.5 370 a2.5 2.5 0 1 0 5 0 a2.5 2.5 0 1 0 -5 0zM547.5 270 a2.5 2.5 0 1 0 5 0 a2.5 2.5 0 1 0 -5 0zM347.5 270 a2.5 2.5 0 1 0 5 0 a2.5 2.5 0 1 0 -5 0zM167.5 310 a2.5 2.5 0 1 0 5 0 a2.5 2.5 0 1 0 -5 0z" fill="black"></path><path d="M287.5 290 a2.5 2.5 0 1 0 5 0 a2.5 2.5 0 1 0 -5 0zM207.5 250 a2.5 2.5 0 1 0 5 0 a2.5 2.5 0 1 0 -5 0zM267.5 270 a2.5 2.5 0 1 0 5 0 a2.5 2.5 0 1 0 -5 0zM227.5 270 a2.5 2.5 0 1 0 5 0 a2.5 2.5 0 1 0 -5 0z" fill="black"></path><path d="M67.5 310 a2.5 2.5 0 1 0 5 0 a2.5 2.5 0 1 0 -5 0zM107.5 310 a2.5 2.5 0 1 0 5 0 a2.5 2.5 0 1 0 -5 0z" fill="black"></path><path d="M367.5 250 a2.5 2.5 0 1 0 5 0 a2.5 2.5 0 1 0 -5 0zM187.5 250 a2.5 2.5 0 1 0 5 0 a2.5 2.5 0 1 0 -5 0zM367.5 230 a2.5 2.5 0 1 0 5 0 a2.5 2.5 0 1 0 -5 0zM307.5 230 a2.5 2.5 0 1 0 5 0 a2.5 2.5 0 1 0 -5 0zM247.5 230 a2.5 2.5 0 1 0 5 0 a2.5 2.5 0 1 0 -5 0zM327.5 270 a2.5 2.5 0 1 0 5 0 a2.5 2.5 0 1 0 -5 0z" fill="black"></path><path d="M287.5 330 a2.5 2.5 0 1 0 5 0 a2.5 2.5 0 1 0 -5 0zM247.5 350 a2.5 2.5 0 1 0 5 0 a2.5 2.5 0 1 0 -5 0zM347.5 350 a2.5 2.5 0 1 0 5 0 a2.5 2.5 0 1 0 -5 0zM167.5 350 a2.5 2.5 0 1 0 5 0 a2.5 2.5 0 1 0 -5 0zM27.5 330 a2.5 2.5 0 1 0 5 0 a2.5 2.5 0 1 0 -5 0z" fill="black"></path><path d="M247.5 210 a2.5 2.5 0 1 0 5 0 a2.5 2.5 0 1 0 -5 0zM167.5 230 a2.5 2.5 0 1 0 5 0 a2.5 2.5 0 1 0 -5 0zM147.5 230 a2.5 2.5 0 1 0 5 0 a2.5 2.5 0 1 0 -5 0z" fill="black"></path><path d="M787.5 390 a2.5 2.5 0 1 0 5 0 a2.5 2.5 0 1 0 -5 0zM647.5 430 a2.5 2.5 0 1 0 5 0 a2.5 2.5 0 1 0 -5 0zM387.5 410 a2.5 2.5 0 1 0 5 0 a2.5 2.5 0 1 0 -5 0zM267.5 410 a2.5 2.5 0 1 0 5 0 a2.5 2.5 0 1 0 -5 0zM727.5 390 a2.5 2.5 0 1 0 5 0 a2.5 2.5 0 1 0 -5 0zM507.5 370 a2.5 2.5 0 1 0 5 0 a2.5 2.5 0 1 0 -5 0zM607.5 430 a2.5 2.5 0 1 0 5 0 a2.5 2.5 0 1 0 -5 0zM267.5 390 a2.5 2.5 0 1 0 5 0 a2.5 2.5 0 1 0 -5 0zM607.5 370 a2.5 2.5 0 1 0 5 0 a2.5 2.5 0 1 0 -5 0zM447.5 410 a2.5 2.5 0 1 0 5 0 a2.5 2.5 0 1 0 -5 0zM987.5 370 a2.5 2.5 0 1 0 5 0 a2.5 2.5 0 1 0 -5 0z" fill="black"></path><path d="M1187.5 190 a2.5 2.5 0 1 0 5 0 a2.5 2.5 0 1 0 -5 0zM547.5 130 a2.5 2.5 0 1 0 5 0 a2.5 2.5 0 1 0 -5 0zM527.5 130 a2.5 2.5 0 1 0 5 0 a2.5 2.5 0 1 0 -5 0zM947.5 130 a2.5 2.5 0 1 0 5 0 a2.5 2.5 0 1 0 -5 0zM1047.5 110 a2.5 2.5 0 1 0 5 0 a2.5 2.5 0 1 0 -5 0zM1087.5 150 a2.5 2.5 0 1 0 5 0 a2.5 2.5 0 1 0 -5 0zM587.5 190 a2.5 2.5 0 1 0 5 0 a2.5 2.5 0 1 0 -5 0zM727.5 210 a2.5 2.5 0 1 0 5 0 a2.5 2.5 0 1 0 -5 0zM227.5 170 a2.5 2.5 0 1 0 5 0 a2.5 2.5 0 1 0 -5 0zM467.5 230 a2.5 2.5 0 1 0 5 0 a2.5 2.5 0 1 0 -5 0zM987.5 110 a2.5 2.5 0 1 0 5 0 a2.5 2.5 0 1 0 -5 0zM1147.5 150 a2.5 2.5 0 1 0 5 0 a2.5 2.5 0 1 0 -5 0zM1187.5 210 a2.5 2.5 0 1 0 5 0 a2.5 2.5 0 1 0 -5 0zM1047.5 190 a2.5 2.5 0 1 0 5 0 a2.5 2.5 0 1 0 -5 0zM587.5 90 a2.5 2.5 0 1 0 5 0 a2.5 2.5 0 1 0 -5 0zM607.5 150 a2.5 2.5 0 1 0 5 0 a2.5 2.5 0 1 0 -5 0z" fill="black"></path><path d="M747.5 450 a2.5 2.5 0 1 0 5 0 a2.5 2.5 0 1 0 -5 0zM427.5 430 a2.5 2.5 0 1 0 5 0 a2.5 2.5 0 1 0 -5 0zM407.5 430 a2.5 2.5 0 1 0 5 0 a2.5 2.5 0 1 0 -5 0zM707.5 430 a2.5 2.5 0 1 0 5 0 a2.5 2.5 0 1 0 -5 0zM887.5 430 a2.5 2.5 0 1 0 5 0 a2.5 2.5 0 1 0 -5 0zM187.5 390 a2.5 2.5 0 1 0 5 0 a2.5 2.5 0 1 0 -5 0zM327.5 410 a2.5 2.5 0 1 0 5 0 a2.5 2.5 0 1 0 -5 0zM667.5 470 a2.5 2.5 0 1 0 5 0 a2.5 2.5 0 1 0 -5 0zM647.5 450 a2.5 2.5 0 1 0 5 0 a2.5 2.5 0 1 0 -5 0zM627.5 450 a2.5 2.5 0 1 0 5 0 a2.5 2.5 0 1 0 -5 0z" fill="black"></path><path d="M67.5 190 a2.5 2.5 0 1 0 5 0 a2.5 2.5 0 1 0 -5 0z" fill="black"></path><path d="M1067.5 490 a2.5 2.5 0 1 0 5 0 a2.5 2.5 0 1 0 -5 0zM327.5 450 a2.5 2.5 0 1 0 5 0 a2.5 2.5 0 1 0 -5 0zM847.5 510 a2.5 2.5 0 1 0 5 0 a2.5 2.5 0 1 0 -5 0zM667.5 510 a2.5 2.5 0 1 0 5 0 a2.5 2.5 0 1 0 -5 0zM987.5 510 a2.5 2.5 0 1 0 5 0 a2.5 2.5 0 1 0 -5 0zM427.5 490 a2.5 2.5 0 1 0 5 0 a2.5 2.5 0 1 0 -5 0zM187.5 470 a2.5 2.5 0 1 0 5 0 a2.5 2.5 0 1 0 -5 0zM387.5 470 a2.5 2.5 0 1 0 5 0 a2.5 2.5 0 1 0 -5 0zM867.5 530 a2.5 2.5 0 1 0 5 0 a2.5 2.5 0 1 0 -5 0zM367.5 470 a2.5 2.5 0 1 0 5 0 a2.5 2.5 0 1 0 -5 0zM1187.5 470 a2.5 2.5 0 1 0 5 0 a2.5 2.5 0 1 0 -5 0zM1047.5 450 a2.5 2.5 0 1 0 5 0 a2.5 2.5 0 1 0 -5 0zM847.5 470 a2.5 2.5 0 1 0 5 0 a2.5 2.5 0 1 0 -5 0zM607.5 490 a2.5 2.5 0 1 0 5 0 a2.5 2.5 0 1 0 -5 0z" fill="black"></path><path d="M107.5 150 a2.5 2.5 0 1 0 5 0 a2.5 2.5 0 1 0 -5 0zM47.5 150 a2.5 2.5 0 1 0 5 0 a2.5 2.5 0 1 0 -5 0zM87.5 150 a2.5 2.5 0 1 0 5 0 a2.5 2.5 0 1 0 -5 0z" fill="black"></path><path d="M7.5 410 a2.5 2.5 0 1 0 5 0 a2.5 2.5 0 1 0 -5 0z" fill="black"></path></mask></defs></svg>