<svg xmlns="http://www.w3.org/2000/svg" version="1.1" xmlns:xlink="http://www.w3.org/1999/xlink" xmlns:svgjs="http://svgjs.com/svgjs" width="1920" height="1080" preserveAspectRatio="none" viewBox="0 0 1920 1080"><g mask="url(&quot;#SvgjsMask1117&quot;)" fill="none"><path d="M1490 914L1489 471" stroke-width="8" stroke="url(#SvgjsLinearGradient1118)" stroke-linecap="round" class="Down"></path><path d="M1102 627L1101 1207" stroke-width="8" stroke="url(#SvgjsLinearGradient1118)" stroke-linecap="round" class="Down"></path><path d="M1631 468L1630 897" stroke-width="10" stroke="url(#SvgjsLinearGradient1119)" stroke-linecap="round" class="Up"></path><path d="M1823 1073L1822 1541" stroke-width="8" stroke="url(#SvgjsLinearGradient1118)" stroke-linecap="round" class="Down"></path><path d="M1450 949L1449 221" stroke-width="10" stroke="url(#SvgjsLinearGradient1119)" stroke-linecap="round" class="Up"></path><path d="M264 881L263 222" stroke-width="6" stroke="url(#SvgjsLinearGradient1119)" stroke-linecap="round" class="Up"></path><path d="M238 455L237 81" stroke-width="6" stroke="url(#SvgjsLinearGradient1120)" stroke-linecap="round" class="Down"></path><path d="M945 367L944 -41" stroke-width="10" stroke="url(#SvgjsLinearGradient1121)" stroke-linecap="round" class="Up"></path><path d="M1209 831L1208 1584" stroke-width="8" stroke="url(#SvgjsLinearGradient1118)" stroke-linecap="round" class="Down"></path><path d="M1216 235L1215 -249" stroke-width="6" stroke="url(#SvgjsLinearGradient1120)" stroke-linecap="round" class="Down"></path><path d="M1020 839L1019 1578" stroke-width="8" stroke="url(#SvgjsLinearGradient1119)" stroke-linecap="round" class="Up"></path><path d="M82 890L81 1686" stroke-width="10" stroke="url(#SvgjsLinearGradient1119)" stroke-linecap="round" class="Up"></path><path d="M882 27L881 411" stroke-width="10" stroke="url(#SvgjsLinearGradient1120)" stroke-linecap="round" class="Down"></path><path d="M894 881L893 1304" stroke-width="10" stroke="url(#SvgjsLinearGradient1118)" stroke-linecap="round" class="Down"></path><path d="M891 889L890 563" stroke-width="6" stroke="url(#SvgjsLinearGradient1120)" stroke-linecap="round" class="Down"></path><path d="M241 617L240 956" stroke-width="6" stroke="url(#SvgjsLinearGradient1118)" stroke-linecap="round" class="Down"></path><path d="M1277 264L1276 -27" stroke-width="6" stroke="url(#SvgjsLinearGradient1120)" stroke-linecap="round" class="Down"></path><path d="M722 754L721 441" stroke-width="10" stroke="url(#SvgjsLinearGradient1120)" stroke-linecap="round" class="Down"></path><path d="M234 432L233 -351" stroke-width="8" stroke="url(#SvgjsLinearGradient1121)" stroke-linecap="round" class="Up"></path><path d="M64 699L63 1269" stroke-width="8" stroke="url(#SvgjsLinearGradient1119)" stroke-linecap="round" class="Up"></path><path d="M1008 800L1007 1203" stroke-width="8" stroke="url(#SvgjsLinearGradient1121)" stroke-linecap="round" class="Up"></path><path d="M71 1023L70 214" stroke-width="8" stroke="url(#SvgjsLinearGradient1120)" stroke-linecap="round" class="Down"></path><path d="M1914 554L1913 -47" stroke-width="8" stroke="url(#SvgjsLinearGradient1121)" stroke-linecap="round" class="Up"></path><path d="M891 781L890 169" stroke-width="8" stroke="url(#SvgjsLinearGradient1121)" stroke-linecap="round" class="Up"></path><path d="M1431 502L1430 1269" stroke-width="10" stroke="url(#SvgjsLinearGradient1119)" stroke-linecap="round" class="Up"></path><path d="M792 297L791 -224" stroke-width="10" stroke="url(#SvgjsLinearGradient1119)" stroke-linecap="round" class="Up"></path><path d="M1323 749L1322 1253" stroke-width="10" stroke="url(#SvgjsLinearGradient1118)" stroke-linecap="round" class="Down"></path><path d="M284 271L283 1050" stroke-width="6" stroke="url(#SvgjsLinearGradient1119)" stroke-linecap="round" class="Up"></path><path d="M1029 367L1028 -362" stroke-width="10" stroke="url(#SvgjsLinearGradient1119)" stroke-linecap="round" class="Up"></path><path d="M1320 493L1319 1160" stroke-width="8" stroke="url(#SvgjsLinearGradient1119)" stroke-linecap="round" class="Up"></path><path d="M972 640L971 -121" stroke-width="6" stroke="url(#SvgjsLinearGradient1120)" stroke-linecap="round" class="Down"></path><path d="M1711 310L1710 995" stroke-width="10" stroke="url(#SvgjsLinearGradient1118)" stroke-linecap="round" class="Down"></path><path d="M320 114L319 -197" stroke-width="10" stroke="url(#SvgjsLinearGradient1119)" stroke-linecap="round" class="Up"></path><path d="M152 785L151 1" stroke-width="10" stroke="url(#SvgjsLinearGradient1119)" stroke-linecap="round" class="Up"></path><path d="M717 519L716 -224" stroke-width="6" stroke="url(#SvgjsLinearGradient1119)" stroke-linecap="round" class="Up"></path><path d="M1526 161L1525 -517" stroke-width="10" stroke="url(#SvgjsLinearGradient1119)" stroke-linecap="round" class="Up"></path><path d="M1598 471L1597 -305" stroke-width="8" stroke="url(#SvgjsLinearGradient1121)" stroke-linecap="round" class="Up"></path><path d="M1730 273L1729 -479" stroke-width="10" stroke="url(#SvgjsLinearGradient1118)" stroke-linecap="round" class="Down"></path><path d="M745 868L744 452" stroke-width="8" stroke="url(#SvgjsLinearGradient1120)" stroke-linecap="round" class="Down"></path><path d="M1648 44L1647 691" stroke-width="8" stroke="url(#SvgjsLinearGradient1121)" stroke-linecap="round" class="Up"></path><path d="M122 809L121 442" stroke-width="10" stroke="url(#SvgjsLinearGradient1121)" stroke-linecap="round" class="Up"></path><path d="M1877 350L1876 645" stroke-width="10" stroke="url(#SvgjsLinearGradient1119)" stroke-linecap="round" class="Up"></path><path d="M1537 729L1536 216" stroke-width="10" stroke="url(#SvgjsLinearGradient1118)" stroke-linecap="round" class="Down"></path><path d="M1427 1000L1426 1402" stroke-width="8" stroke="url(#SvgjsLinearGradient1118)" stroke-linecap="round" class="Down"></path><path d="M1383 656L1382 131" stroke-width="6" stroke="url(#SvgjsLinearGradient1118)" stroke-linecap="round" class="Down"></path><path d="M1153 867L1152 210" stroke-width="10" stroke="url(#SvgjsLinearGradient1121)" stroke-linecap="round" class="Up"></path><path d="M916 651L915 950" stroke-width="6" stroke="url(#SvgjsLinearGradient1119)" stroke-linecap="round" class="Up"></path><path d="M576 934L575 636" stroke-width="8" stroke="url(#SvgjsLinearGradient1119)" stroke-linecap="round" class="Up"></path></g><defs><mask id="SvgjsMask1117"><rect width="1920" height="1080" fill="#ffffff"></rect></mask><linearGradient x1="0%" y1="0%" x2="0%" y2="100%" id="SvgjsLinearGradient1118"><stop stop-color="rgba(39, 142, 165, 0)" offset="0"></stop><stop stop-color="rgba(39, 142, 165, 1)" offset="1"></stop></linearGradient><linearGradient x1="0%" y1="100%" x2="0%" y2="0%" id="SvgjsLinearGradient1119"><stop stop-color="rgba(39, 142, 165, 0)" offset="0"></stop><stop stop-color="rgba(39, 142, 165, 1)" offset="1"></stop></linearGradient><linearGradient x1="0%" y1="0%" x2="0%" y2="100%" id="SvgjsLinearGradient1120"><stop stop-color="rgba(33, 230, 193, 0)" offset="0"></stop><stop stop-color="rgba(33, 230, 193, 1)" offset="1"></stop></linearGradient><linearGradient x1="0%" y1="100%" x2="0%" y2="0%" id="SvgjsLinearGradient1121"><stop stop-color="rgba(33, 230, 193, 0)" offset="0"></stop><stop stop-color="rgba(33, 230, 193, 1)" offset="1"></stop></linearGradient></defs></svg>